<svg xmlns="http://www.w3.org/2000/svg" viewBox="1.1 0.55 31 31">
  <path d="M31.16641,16.05544c0,7.44995-5.58014,13.65808-12.97998,14.4408l-1.32349.14001c-.16724.01758-.31293-.11353-.31293-.28162v-5.09753c0-.15637.12677-.2832.28314-.2832h2.39496c.15637,0,.28314.12683.28314.2832v1.63269c0,.18652.1781.32507.35736.27356,4.86963-1.39917,8.33655-5.86755,8.33655-11.10791s-3.46692-9.70874-8.33655-11.10791c-.17926-.05151-.35736.08716-.35736.27368v1.80347c0,.15625-.12677.28308-.28314.28308h-2.39496c-.15637,0-.28314-.12683-.28314-.28308V1.75637c0-.16821.14569-.29932.31293-.28162l1.32349.14001c7.39984.78271,12.97998,6.99084,12.97998,14.44067ZM13.97629,27.30617c-4.68329-1.10608-8.18207-5.06201-8.7981-9.76587h11.37183v5.11438c0,.15637.12677.28308.28314.28308h2.39502c.15631,0,.28308-.12671.28308-.28308v-13.18982c0-.15649-.12677-.2832-.28308-.2832h-2.39502c-.15637,0-.28314.12671-.28314.2832v5.11426H5.17716c.61292-4.70764,4.11304-8.66772,8.79913-9.77441.14014-.0332.24017-.15601.24017-.29993v-2.37866c0-.18616-.16229-.32996-.34698-.30725-.07715.00952-.16406.02075-.25769.03394-.00897.00134-.01819.00293-.0271.00488C6.94095,3.28286,2.12009,9.25173,2.12009,16.05544c0,6.80835,4.82727,12.78052,11.47791,14.20068.08112.02393.16516.04492.24426.06238.19257.04272.37421-.10559.37421-.30286v-2.40955c0-.14392-.10004-.26672-.24017-.29993Z"/>
</svg>
