<?xml version="1.0" encoding="UTF-8"?>
<svg id="a" data-name="Layer 1" xmlns="http://www.w3.org/2000/svg" width="238.77618" height="32.22058" viewBox="0 0 238.77618 32.22058">
  <g>
    <path d="M42.21631,23.86897v-15.62695h2.40088v15.62695h-2.40088ZM43.52588,17.01545v-2.26953h9.25391v2.26953h-9.25391ZM51.92872,23.86897v-15.62695h2.37891v15.62695h-2.37891Z"/>
    <path d="M57.14454,8.24201h2.8374l3.55762,5.89258h.13086l3.47021-5.89258h2.85889l-5.19434,8.38086h-2.37891l-5.28174-8.38086ZM62.42628,23.86897v-8.33691h2.37891v8.33691h-2.37891Z"/>
    <path d="M79.25391,24.21857c-1.12061,0-2.17578-.2041-3.16504-.61133s-1.85889-.97852-2.60791-1.71387c-.74951-.73438-1.33887-1.59961-1.76807-2.59668s-.64355-2.07715-.64355-3.24121.21436-2.24414.64355-3.24121c.4292-.99609,1.01855-1.8623,1.76807-2.59668.74902-.73535,1.61865-1.30664,2.60791-1.71387s2.04443-.61133,3.16504-.61133c1.19287,0,2.29492.21191,3.30615.63379s1.85889,1.01074,2.54297,1.76758l-1.65869,1.63672c-.33496-.37793-.7168-.69824-1.146-.95996-.4292-.2627-.89844-.46191-1.40771-.60059-.50928-.1377-1.05518-.20703-1.63672-.20703-.77148,0-1.50635.1377-2.20459.41406-.69824.27734-1.31348.67383-1.84424,1.18945-.53125.5166-.94922,1.13574-1.25488,1.85547-.30566.7207-.4585,1.53125-.4585,2.43359s.15625,1.71289.46924,2.43359c.31299.71973.73486,1.33887,1.26611,1.85547.53076.5166,1.14551.91309,1.84424,1.18945.69824.27637,1.43262.41406,2.2041.41406.71289,0,1.37842-.10156,1.99707-.30566.61816-.20312,1.16016-.49414,1.62598-.87305.46582-.37793.84375-.83984,1.13525-1.38574.29053-.54492.47266-1.16016.54541-1.84375h-5.34717v-2.11719h7.59521c.02881.1748.05811.375.0874.59961.02881.22656.04346.44043.04346.64453v.02148c0,1.12109-.19287,2.14648-.57812,3.07715-.38574.93164-.92041,1.72852-1.60449,2.39062s-1.49512,1.1709-2.43359,1.52734-1.96777.53516-3.08789.53516Z"/>
    <path d="M90.44971,23.86897v-15.62695h2.40088v15.62695h-2.40088Z"/>
    <path d="M97.21534,23.86897v-15.62695h9.47217v2.26953h-7.07129v11.08789h7.07129v2.26953h-9.47217ZM98.52491,17.19025v-2.26953h7.46436v2.26953h-7.46436Z"/>
    <path d="M110.41944,23.86897v-15.62695h2.8374l7.07129,11.48047h.13086l-.13086-3.0127v-8.46777h2.37891v15.62695h-2.48828l-7.42041-12.06934h-.13086l.13086,3.01172v9.05762h-2.37891Z"/>
    <path d="M127.07227,23.86897v-15.62695h2.40088v15.62695h-2.40088Z"/>
    <path d="M141.19288,24.21857c-1.14941,0-2.21875-.20801-3.20801-.62207-.98975-.41504-1.85205-.98926-2.58643-1.72461-.73486-.73438-1.30957-1.60059-1.72412-2.59766-.41504-.99609-.62207-2.06934-.62207-3.21875,0-1.16406.20703-2.24023.62207-3.23047.41455-.98926.98926-1.85156,1.72412-2.58594.73438-.73438,1.59668-1.30957,2.58643-1.72461.98926-.41406,2.05859-.62207,3.20801-.62207.81494,0,1.57129.10254,2.27002.30566.69824.2041,1.33838.49512,1.92041.87305.58203.37891,1.11328.83691,1.59326,1.375l-1.68066,1.63672c-.34912-.42188-.72754-.77441-1.13477-1.05762-.40723-.28418-.85498-.49902-1.34229-.64453s-1.02246-.21777-1.604-.21777c-1.04785,0-2.00781.24316-2.88086.73047-.87305.48828-1.56836,1.16797-2.08447,2.04102-.5166.87305-.7749,1.91309-.7749,3.12109,0,1.19336.2583,2.22949.7749,3.11035.51611.87988,1.21143,1.56445,2.08447,2.05176s1.83301.73047,2.88086.73047c.9458,0,1.78564-.19629,2.521-.58887.73438-.39258,1.38574-.93066,1.95312-1.61523l1.72412,1.65918c-.47998.56738-1.04053,1.06152-1.68066,1.4834-.64014.42285-1.33887.75-2.09521.98242s-1.57129.34961-2.44434.34961Z"/>
    <path d="M156.81934,23.86897v-15.62695h4.99805c1.64404,0,3.05908.33105,4.24512.99316,1.18555.66211,2.10205,1.58203,2.75,2.76074.64697,1.17871.97119,2.53223.97119,4.05957s-.32422,2.88086-.97119,4.05957c-.64795,1.17871-1.56445,2.09863-2.75,2.76074-1.18604.66211-2.60107.99316-4.24512.99316h-4.99805ZM159.22022,21.59943h2.53174c1.17822,0,2.18945-.22168,3.03369-.66602.84375-.44336,1.48389-1.08008,1.92041-1.91016.43652-.8291.65479-1.81836.65479-2.96777s-.21826-2.13867-.65479-2.96777c-.43652-.83008-1.07666-1.46582-1.92041-1.91016-.84424-.44336-1.85547-.66602-3.03369-.66602h-2.53174v11.08789Z"/>
    <path d="M173.3628,23.86897v-15.62695h9.47217v2.26953h-7.07129v11.08789h7.07129v2.26953h-9.47217ZM174.67237,17.19025v-2.26953h7.46436v2.26953h-7.46436Z"/>
    <path d="M190.77881,24.21857c-.8291,0-1.62256-.16406-2.37891-.49121-.75684-.32812-1.42236-.81152-1.99707-1.45117-.57471-.64062-1.00049-1.43359-1.27686-2.37988l2.27002-.91602c.23242.84375.64014,1.5498,1.22217,2.11719.58154.56738,1.30957.85059,2.18262.85059.49463,0,.95654-.08691,1.38574-.26172s.7749-.43262,1.03662-.77441c.26221-.3418.39307-.76074.39307-1.25488,0-.46582-.10938-.8623-.32764-1.18945-.21826-.32812-.56738-.62598-1.04736-.89551-.47998-.26855-1.09131-.53418-1.8335-.7959l-.98193-.34961c-.42236-.16016-.85107-.35645-1.2876-.58887-.43652-.2334-.84033-.52051-1.21143-.8623s-.66553-.74609-.88379-1.21191c-.21826-.46484-.32764-1.00391-.32764-1.61523,0-.78516.20752-1.49805.62207-2.13867.41455-.63965.98926-1.15234,1.72412-1.53809s1.58936-.5791,2.56445-.5791c1.00391,0,1.84424.17871,2.521.53516s1.20752.78223,1.59326,1.27637c.38525.49512.65088.96777.79639,1.41895l-2.16064.91699c-.0874-.30566-.24365-.60352-.46924-.89551-.22559-.29004-.52393-.53418-.89453-.73047-.37109-.19629-.82617-.29492-1.36426-.29492-.46582,0-.8916.08691-1.27686.26172-.38574.1748-.69482.41113-.92773.70996-.23291.29785-.34912.64355-.34912,1.03613,0,.56738.23291,1.0293.69873,1.38574.46533.35742,1.14209.68066,2.02979.97168l1.00391.34863c.50879.1748,1.01074.38281,1.50586.62207.49463.24023.9458.5459,1.35303.91699s.73145.82227.97119,1.35352c.24023.53125.36035,1.16016.36035,1.8877,0,.7998-.15674,1.49512-.46924,2.08398-.31299.58984-.72803,1.06934-1.24414,1.44043-.5166.37109-1.08398.64453-1.70264.81836-.61816.1748-1.22559.2627-1.82227.2627Z"/>
    <path d="M199.50928,23.86897v-15.62695h2.40088v15.62695h-2.40088Z"/>
    <path d="M213.67335,24.21857c-1.12061,0-2.17578-.2041-3.16504-.61133s-1.85889-.97852-2.60791-1.71387c-.74951-.73438-1.33887-1.59961-1.76807-2.59668s-.64355-2.07715-.64355-3.24121.21436-2.24414.64355-3.24121c.4292-.99609,1.01855-1.8623,1.76807-2.59668.74902-.73535,1.61865-1.30664,2.60791-1.71387s2.04443-.61133,3.16504-.61133c1.19287,0,2.29492.21191,3.30615.63379s1.85889,1.01074,2.54297,1.76758l-1.65869,1.63672c-.33496-.37793-.7168-.69824-1.146-.95996-.4292-.2627-.89844-.46191-1.40771-.60059-.50928-.1377-1.05518-.20703-1.63672-.20703-.77148,0-1.50635.1377-2.20459.41406-.69824.27734-1.31348.67383-1.84424,1.18945-.53125.5166-.94922,1.13574-1.25488,1.85547-.30566.7207-.4585,1.53125-.4585,2.43359s.15625,1.71289.46924,2.43359c.31299.71973.73486,1.33887,1.26611,1.85547.53076.5166,1.14551.91309,1.84424,1.18945.69824.27637,1.43262.41406,2.2041.41406.71289,0,1.37842-.10156,1.99707-.30566.61816-.20312,1.16016-.49414,1.62598-.87305.46582-.37793.84375-.83984,1.13525-1.38574.29053-.54492.47266-1.16016.54541-1.84375h-5.34717v-2.11719h7.59521c.02881.1748.05811.375.0874.59961.02881.22656.04346.44043.04346.64453v.02148c0,1.12109-.19287,2.14648-.57812,3.07715-.38574.93164-.92041,1.72852-1.60449,2.39062s-1.49512,1.1709-2.43359,1.52734-1.96777.53516-3.08789.53516Z"/>
    <path d="M224.86963,23.86897v-15.62695h2.8374l7.07129,11.48047h.13086l-.13086-3.0127v-8.46777h2.37891v15.62695h-2.48828l-7.42041-12.06934h-.13086l.13086,3.01172v9.05762h-2.37891Z"/>
  </g>
  <path d="M31.16641,16.05544c0,7.44995-5.58014,13.65808-12.97998,14.4408l-1.32349.14001c-.16724.01758-.31293-.11353-.31293-.28162v-5.09753c0-.15637.12677-.2832.28314-.2832h2.39496c.15637,0,.28314.12683.28314.2832v1.63269c0,.18652.1781.32507.35736.27356,4.86963-1.39917,8.33655-5.86755,8.33655-11.10791s-3.46692-9.70874-8.33655-11.10791c-.17926-.05151-.35736.08716-.35736.27368v1.80347c0,.15625-.12677.28308-.28314.28308h-2.39496c-.15637,0-.28314-.12683-.28314-.28308V1.75637c0-.16821.14569-.29932.31293-.28162l1.32349.14001c7.39984.78271,12.97998,6.99084,12.97998,14.44067ZM13.97629,27.30617c-4.68329-1.10608-8.18207-5.06201-8.7981-9.76587h11.37183v5.11438c0,.15637.12677.28308.28314.28308h2.39502c.15631,0,.28308-.12671.28308-.28308v-13.18982c0-.15649-.12677-.2832-.28308-.2832h-2.39502c-.15637,0-.28314.12671-.28314.2832v5.11426H5.17716c.61292-4.70764,4.11304-8.66772,8.79913-9.77441.14014-.0332.24017-.15601.24017-.29993v-2.37866c0-.18616-.16229-.32996-.34698-.30725-.07715.00952-.16406.02075-.25769.03394-.00897.00134-.01819.00293-.0271.00488C6.94095,3.28286,2.12009,9.25173,2.12009,16.05544c0,6.80835,4.82727,12.78052,11.47791,14.20068.08112.02393.16516.04492.24426.06238.19257.04272.37421-.10559.37421-.30286v-2.40955c0-.14392-.10004-.26672-.24017-.29993Z"/>
</svg>